<!-- Copyright (c) 2022 Tobias Briones. All rights reserved. -->
<!-- SPDX-License-Identifier: CC-BY-4.0 -->
<!-- This file is part of https://github.com/mathsoftware/engineer -->

<svg xmlns="http://www.w3.org/2000/svg" xmlns:xlink="http://www.w3.org/1999/xlink" xmlns:lucid="lucid" width="1419" height="1354"><g transform="translate(-162.49999999999977 -42.5)" lucid:page-tab-id="0_0"><path d="M0 0h1870.87v2517.67H0z" fill="#fff"/><path d="M648 294a6 6 0 0 1 6-6h436a6 6 0 0 1 6 6v436a6 6 0 0 1-6 6H654a6 6 0 0 1-6-6z" stroke="#5e5e5e" stroke-width="3" fill="#fff"/><path d="M648 337.33h448m-448 116h448" stroke="#5e5e5e" stroke-width="3" fill="none"/><use xlink:href="#a" transform="matrix(1,0,0,1,655.9999999999998,296) translate(145.57777777777778 23.666666666666668)"/><use xlink:href="#b" transform="matrix(1,0,0,1,659.9999999999998,345.3333333333333) translate(0 23.33333333333334)"/><use xlink:href="#c" transform="matrix(1,0,0,1,659.9999999999998,345.3333333333333) translate(21.111111111111114 23.33333333333334)"/><use xlink:href="#d" transform="matrix(1,0,0,1,659.9999999999998,345.3333333333333) translate(126.5777777777778 23.33333333333334)"/><use xlink:href="#e" transform="matrix(1,0,0,1,659.9999999999998,345.3333333333333) translate(0 56.66666666666667)"/><use xlink:href="#f" transform="matrix(1,0,0,1,659.9999999999998,345.3333333333333) translate(18.177777777777777 56.66666666666667)"/><use xlink:href="#g" transform="matrix(1,0,0,1,659.9999999999998,345.3333333333333) translate(127.53333333333335 56.66666666666667)"/><use xlink:href="#e" transform="matrix(1,0,0,1,659.9999999999998,345.3333333333333) translate(0 89.99999999999999)"/><use xlink:href="#h" transform="matrix(1,0,0,1,659.9999999999998,345.3333333333333) translate(18.177777777777777 89.99999999999999)"/><use xlink:href="#i" transform="matrix(1,0,0,1,659.9999999999998,345.3333333333333) translate(61.06666666666666 89.99999999999999)"/><use xlink:href="#b" transform="matrix(1,0,0,1,659.9999999999998,461.3333333333333) translate(0 23.500000000000046)"/><use xlink:href="#j" transform="matrix(1,0,0,1,659.9999999999998,461.3333333333333) translate(21.111111111111114 23.500000000000046)"/><use xlink:href="#d" transform="matrix(1,0,0,1,659.9999999999998,461.3333333333333) translate(112.97777777777779 23.500000000000046)"/><use xlink:href="#b" transform="matrix(1,0,0,1,659.9999999999998,461.3333333333333) translate(0 56.83333333333337)"/><use xlink:href="#k" transform="matrix(1,0,0,1,659.9999999999998,461.3333333333333) translate(21.111111111111114 56.83333333333337)"/><use xlink:href="#d" transform="matrix(1,0,0,1,659.9999999999998,461.3333333333333) translate(122.75555555555557 56.83333333333337)"/><use xlink:href="#b" transform="matrix(1,0,0,1,659.9999999999998,461.3333333333333) translate(0 90.1666666666667)"/><use xlink:href="#l" transform="matrix(1,0,0,1,659.9999999999998,461.3333333333333) translate(21.111111111111114 90.1666666666667)"/><use xlink:href="#b" transform="matrix(1,0,0,1,659.9999999999998,461.3333333333333) translate(0 123.50000000000003)"/><use xlink:href="#m" transform="matrix(1,0,0,1,659.9999999999998,461.3333333333333) translate(21.111111111111114 123.50000000000003)"/><use xlink:href="#e" transform="matrix(1,0,0,1,659.9999999999998,461.3333333333333) translate(0 156.83333333333337)"/><use xlink:href="#n" transform="matrix(1,0,0,1,659.9999999999998,461.3333333333333) translate(18.177777777777777 156.83333333333337)"/><use xlink:href="#o" transform="matrix(1,0,0,1,659.9999999999998,461.3333333333333) translate(0 190.16666666666669)"/><use xlink:href="#p" transform="matrix(1,0,0,1,659.9999999999998,461.3333333333333) translate(24.6 190.16666666666669)"/><use xlink:href="#o" transform="matrix(1,0,0,1,659.9999999999998,461.3333333333333) translate(0 223.5)"/><use xlink:href="#q" transform="matrix(1,0,0,1,659.9999999999998,461.3333333333333) translate(24.6 223.5)"/><use xlink:href="#r" transform="matrix(1,0,0,1,659.9999999999998,461.3333333333333) translate(0 256.8333333333333)"/><path d="M184 70a6 6 0 0 1 6-6h1364a6 6 0 0 1 6 6v84a6 6 0 0 1-6 6H190a6 6 0 0 1-6-6z" stroke="#000" stroke-opacity="0" stroke-width="3" fill="#fff" fill-opacity="0"/><use xlink:href="#s" transform="matrix(1,0,0,1,188.99999999999977,69) translate(353.6600000000004 65.68749999999994)"/><use xlink:href="#t" transform="matrix(1,0,0,1,188.99999999999977,69) translate(595.5200000000002 65.68749999999994)"/><path d="M936 871a6 6 0 0 1 6-6h516a6 6 0 0 1 6 6v303a6 6 0 0 1-6 6H942a6 6 0 0 1-6-6z" stroke="#5e5e5e" stroke-width="3" fill="#fff"/><path d="M936 914.33h528m-528 149.34h528" stroke="#5e5e5e" stroke-width="3" fill="none"/><g><use xlink:href="#u" transform="matrix(1,0,0,1,944,872.9999999999999) translate(159.52222222222218 23.666666666666668)"/></g><g><use xlink:href="#b" transform="matrix(1,0,0,1,948,922.3333333333333) translate(0 23.666666666666675)"/><use xlink:href="#v" transform="matrix(1,0,0,1,948,922.3333333333333) translate(21.111111111111114 23.666666666666675)"/><use xlink:href="#w" transform="matrix(1,0,0,1,948,922.3333333333333) translate(251.00000000000003 23.666666666666675)"/><use xlink:href="#x" transform="matrix(1,0,0,1,948,922.3333333333333) translate(273 23.666666666666675)"/><use xlink:href="#b" transform="matrix(1,0,0,1,948,922.3333333333333) translate(0 57)"/><use xlink:href="#y" transform="matrix(1,0,0,1,948,922.3333333333333) translate(21.111111111111114 57)"/><use xlink:href="#d" transform="matrix(1,0,0,1,948,922.3333333333333) translate(179.1111111111111 57)"/><use xlink:href="#b" transform="matrix(1,0,0,1,948,922.3333333333333) translate(0 90.33333333333333)"/><use xlink:href="#z" transform="matrix(1,0,0,1,948,922.3333333333333) translate(21.111111111111114 90.33333333333333)"/><use xlink:href="#d" transform="matrix(1,0,0,1,948,922.3333333333333) translate(177.6888888888889 90.33333333333333)"/><use xlink:href="#e" transform="matrix(1,0,0,1,948,922.3333333333333) translate(0 123.66666666666666)"/><use xlink:href="#A" transform="matrix(1,0,0,1,948,922.3333333333333) translate(18.177777777777777 123.66666666666666)"/><use xlink:href="#B" transform="matrix(1,0,0,1,948,922.3333333333333) translate(132.95555555555558 123.66666666666666)"/></g><g><use xlink:href="#b" transform="matrix(1,0,0,1,948,1071.6666666666665) translate(0 23.33333333333334)"/><use xlink:href="#C" transform="matrix(1,0,0,1,948,1071.6666666666665) translate(21.111111111111114 23.33333333333334)"/><use xlink:href="#d" transform="matrix(1,0,0,1,948,1071.6666666666665) translate(132.55555555555554 23.33333333333334)"/><use xlink:href="#e" transform="matrix(1,0,0,1,948,1071.6666666666665) translate(0 56.66666666666667)"/><use xlink:href="#D" transform="matrix(1,0,0,1,948,1071.6666666666665) translate(18.177777777777777 56.66666666666667)"/><use xlink:href="#e" transform="matrix(1,0,0,1,948,1071.6666666666665) translate(0 89.99999999999999)"/><use xlink:href="#E" transform="matrix(1,0,0,1,948,1071.6666666666665) translate(18.177777777777777 89.99999999999999)"/></g><path d="M1200 862.5v-56a6 6 0 0 0-6-6H878a6 6 0 0 1-6-6v-32.52" stroke="#5e5e5e" stroke-width="2" fill="none"/><path d="M1201 863.5h-2v-1.03h2z" stroke="#5e5e5e" stroke-width=".05" fill="#5e5e5e"/><path d="M872 739.46l12.73 21.52h-25.46z" stroke="#5e5e5e" stroke-width="2" fill="#fff"/><path d="M496 1318a6 6 0 0 1 6-6h756a6 6 0 0 1 6 6v51a6 6 0 0 1-6 6H502a6 6 0 0 1-6-6z" stroke="#000" stroke-opacity="0" stroke-width="3" fill="#fff" fill-opacity="0"/><g><use xlink:href="#F" transform="matrix(1,0,0,1,501.0000000000001,1317) translate(158.01888888888902 42.979166666666636)"/></g><path d="M296 871a6 6 0 0 1 6-6h500a6 6 0 0 1 6 6v369a6 6 0 0 1-6 6H302a6 6 0 0 1-6-6z" stroke="#5e5e5e" stroke-width="3" fill="#fff"/><path d="M296 914.33h512M296 997h512" stroke="#5e5e5e" stroke-width="3" fill="none"/><g><use xlink:href="#G" transform="matrix(1,0,0,1,304,873) translate(125.55555555555553 23.666666666666668)"/></g><g><use xlink:href="#b" transform="matrix(1,0,0,1,308,922.3333333333334) translate(0 23.500000000000004)"/><use xlink:href="#H" transform="matrix(1,0,0,1,308,922.3333333333334) translate(21.111111111111114 23.500000000000004)"/><use xlink:href="#I" transform="matrix(1,0,0,1,308,922.3333333333334) translate(135.24444444444447 23.500000000000004)"/><use xlink:href="#e" transform="matrix(1,0,0,1,308,922.3333333333334) translate(0 56.83333333333333)"/><use xlink:href="#J" transform="matrix(1,0,0,1,308,922.3333333333334) translate(18.177777777777777 56.83333333333333)"/><use xlink:href="#B" transform="matrix(1,0,0,1,308,922.3333333333334) translate(121.97777777777777 56.83333333333333)"/></g><g><use xlink:href="#b" transform="matrix(1,0,0,1,308,1005) translate(0 23.66666666666669)"/><use xlink:href="#l" transform="matrix(1,0,0,1,308,1005) translate(21.111111111111114 23.66666666666669)"/><use xlink:href="#b" transform="matrix(1,0,0,1,308,1005) translate(0 57.000000000000014)"/><use xlink:href="#m" transform="matrix(1,0,0,1,308,1005) translate(21.111111111111114 57.000000000000014)"/><use xlink:href="#e" transform="matrix(1,0,0,1,308,1005) translate(0 90.33333333333334)"/><use xlink:href="#K" transform="matrix(1,0,0,1,308,1005) translate(18.177777777777777 90.33333333333334)"/><use xlink:href="#L" transform="matrix(1,0,0,1,308,1005) translate(186.02222222222224 90.33333333333334)"/><use xlink:href="#M" transform="matrix(1,0,0,1,308,1005) translate(253.60000000000002 90.33333333333334)"/><use xlink:href="#e" transform="matrix(1,0,0,1,308,1005) translate(0 123.66666666666667)"/><use xlink:href="#N" transform="matrix(1,0,0,1,308,1005) translate(18.177777777777777 123.66666666666667)"/><use xlink:href="#L" transform="matrix(1,0,0,1,308,1005) translate(240.68888888888893 123.66666666666667)"/><use xlink:href="#M" transform="matrix(1,0,0,1,308,1005) translate(308.2666666666667 123.66666666666667)"/><use xlink:href="#e" transform="matrix(1,0,0,1,308,1005) translate(0 157.00000000000003)"/><use xlink:href="#O" transform="matrix(1,0,0,1,308,1005) translate(18.177777777777777 157.00000000000003)"/><use xlink:href="#P" transform="matrix(1,0,0,1,308,1005) translate(249.66666666666669 157.00000000000003)"/><use xlink:href="#e" transform="matrix(1,0,0,1,308,1005) translate(0 190.33333333333334)"/><use xlink:href="#Q" transform="matrix(1,0,0,1,308,1005) translate(18.177777777777777 190.33333333333334)"/><use xlink:href="#P" transform="matrix(1,0,0,1,308,1005) translate(275.80000000000007 190.33333333333334)"/><use xlink:href="#e" transform="matrix(1,0,0,1,308,1005) translate(0 223.66666666666666)"/><use xlink:href="#R" transform="matrix(1,0,0,1,308,1005) translate(18.177777777777777 223.66666666666666)"/></g><path d="M552 862.5v-56a6 6 0 0 1 6-6h308a6 6 0 0 0 6-6v-32.52" stroke="#5e5e5e" stroke-width="2" fill="none"/><path d="M553 863.5h-2v-1.03h2z" stroke="#5e5e5e" stroke-width=".05" fill="#5e5e5e"/><path d="M872 739.46l12.73 21.52h-25.46z" stroke="#5e5e5e" stroke-width="2" fill="#fff"/><path d="M528 166a6 6 0 0 1 6-6h692a6 6 0 0 1 6 6v52a6 6 0 0 1-6 6H534a6 6 0 0 1-6-6z" stroke="#000" stroke-opacity="0" stroke-width="3" fill="#fff" fill-opacity="0"/><g><use xlink:href="#S" transform="matrix(1,0,0,1,533.0000000000001,165) translate(165.21333333333342 43.04166666666665)"/><use xlink:href="#T" transform="matrix(1,0,0,1,533.0000000000001,165) translate(249.6466666666667 43.04166666666665)"/><use xlink:href="#U" transform="matrix(1,0,0,1,533.0000000000001,165) translate(363.1688888888889 43.04166666666665)"/></g><path d="M933.5 1022.5h-93.25" stroke="#5e5e5e" stroke-width="2" fill="none"/><path d="M934.5 1023.5h-1.03v-2h1.03z" stroke="#5e5e5e" stroke-width=".05" fill="#5e5e5e"/><path d="M810.9 1022.5l14.86-14.85 15.15 14.85-15.14 14.85z" stroke="#5e5e5e" stroke-width="2" fill="#fff"/><g><use xlink:href="#V" transform="matrix(1,0,0,1,905.5000499999999,996.8999999999999) translate(0 14.4)"/></g><g><use xlink:href="#W" transform="matrix(1,0,0,1,808.5009167609128,1042.5000075538715) translate(0 14.4)"/></g><defs><path fill="#333" d="M930-702L806 0H635l75-421L478 0H340l-84-423L182 0H11l124-702h202l112 486 280-486h201" id="X"/><path fill="#333" d="M262-457c44-56 107-105 195-107l-32 181c-117-7-179 22-197 124L182 0H11l98-558h171" id="Y"/><path fill="#333" d="M823-564c137-4 210 95 185 238L950 0H780c18-111 43-215 56-330 11-94-120-107-173-56-23 20-37 47-43 83L566 0H396c18-111 46-215 56-330 5-56-34-86-89-86-72 1-117 47-127 113v-5L182 0H11l98-558h171l-12 71c38-43 99-77 176-77 88 0 148 39 172 105 42-55 117-104 207-105" id="Z"/><path fill="#333" d="M334 5C128 5 6-135 45-352c37-204 183-352 415-358 164-4 279 95 290 246H562c-16-55-63-88-132-88-132 5-212 111-216 249-1 91 55 153 146 152 75-1 130-39 163-89h188C654-103 517 5 334 5" id="aa"/><path fill="#333" d="M221 8C70 6-3-119 27-280c29-156 125-277 296-286 77-1 133 35 157 87l14-79h171L566 0H395l15-79C371-31 305 8 221 8zm77-149c88-5 149-75 150-171 2-62-41-105-101-105-88 4-149 74-149 170-2 62 41 106 100 106" id="ab"/><path fill="#333" d="M450-564c132-4 199 99 174 238L566 0H396c18-112 46-218 57-333 5-55-34-88-89-88-73 1-117 51-128 118v-5L182 0H11l98-558h171l-13 75c40-45 103-81 183-81" id="ac"/><path fill="#333" d="M290-160l192-398h183L368 0H156L57-558h182" id="ad"/><path fill="#333" d="M243 8C113 8 3-48 14-183h165c-3 44 31 68 77 68 56 0 104-49 52-79-95-51-258-56-254-200 3-118 105-172 232-172 131 0 229 60 226 190H357c3-43-30-66-75-66-56 0-93 55-42 82 92 52 253 55 253 195C493-39 376 8 243 8" id="ae"/><g id="a"><use transform="matrix(0.022222222222222223,0,0,0.022222222222222223,0,0)" xlink:href="#X"/><use transform="matrix(0.022222222222222223,0,0,0.022222222222222223,20.400000000000002,0)" xlink:href="#Y"/><use transform="matrix(0.022222222222222223,0,0,0.022222222222222223,29.91111111111111,0)" xlink:href="#Z"/><use transform="matrix(0.022222222222222223,0,0,0.022222222222222223,53.44444444444445,0)" xlink:href="#aa"/><use transform="matrix(0.022222222222222223,0,0,0.022222222222222223,70.37777777777778,0)" xlink:href="#ab"/><use transform="matrix(0.022222222222222223,0,0,0.022222222222222223,85.46666666666667,0)" xlink:href="#ac"/><use transform="matrix(0.022222222222222223,0,0,0.022222222222222223,100.44444444444444,0)" xlink:href="#ad"/><use transform="matrix(0.022222222222222223,0,0,0.022222222222222223,114.35555555555555,0)" xlink:href="#ab"/><use transform="matrix(0.022222222222222223,0,0,0.022222222222222223,129.44444444444446,0)" xlink:href="#ae"/></g><path fill="#333" d="M597-327H384v216h-85v-216H87v-77h212v-217h85v217h213v77" id="af"/><use transform="matrix(0.022222222222222223,0,0,0.022222222222222223,0,0)" xlink:href="#af" id="b"/><path fill="#333" d="M168-447c34-60 110-111 205-110 162 7 260 114 260 281S536 2 373 9c-95 1-170-51-205-110v361H77v-808h91v101zm372 171c0-121-69-202-186-202-116 0-186 84-186 203 0 120 70 204 186 204 117 0 186-83 186-205" id="ag"/><path fill="#333" d="M43-276c0-167 98-274 260-281 96-2 170 48 204 109v-100h92V0h-92v-102C473-41 398 10 302 9 139 2 43-110 43-276zm464 1c0-121-69-203-186-203s-185 82-185 202c0 121 68 205 185 205s186-83 186-204" id="ah"/><path fill="#333" d="M43-276c0-168 98-275 261-281 90 0 169 48 203 107v-290h92V0h-92v-103C473-41 399 10 303 9 140 2 43-109 43-276zm464 1c0-121-69-203-186-203s-185 82-185 202c0 121 68 205 185 205s186-83 186-204" id="ai"/><path fill="#333" d="M124-637c-34 1-63-28-62-62-1-34 28-63 62-62 33-1 61 29 60 62 1 33-27 63-60 62zm44 89V0H77v-548h91" id="aj"/><path fill="#333" d="M344-558c137 0 224 90 224 235V0h-90v-310c2-103-54-169-153-169-101 1-157 69-157 176V0H77v-548h91v78c32-52 96-88 176-88" id="ak"/><path fill="#333" d="M303-557c95-1 171 49 204 109v-100h92V12c-4 160-101 254-262 258-138 2-249-71-265-190h90c19 66 89 112 175 111 103 0 170-71 170-179v-115C473-42 399 10 303 9 140 2 43-109 43-276s98-274 260-281zm204 282c0-121-69-203-186-203s-185 82-185 202c0 121 68 205 185 205s186-83 186-204" id="al"/><path fill="#333" d="M106 6C72 7 43-22 44-56c-1-34 28-63 62-62 33-1 61 29 60 62 1 33-27 63-60 62zm0-428c-34 1-63-28-62-62-1-34 28-63 62-62 33-1 61 29 60 62 1 33-27 63-60 62" id="am"/><g id="c"><use transform="matrix(0.022222222222222223,0,0,0.022222222222222223,0,0)" xlink:href="#ag"/><use transform="matrix(0.022222222222222223,0,0,0.022222222222222223,15.022222222222222,0)" xlink:href="#ah"/><use transform="matrix(0.022222222222222223,0,0,0.022222222222222223,30.044444444444444,0)" xlink:href="#ai"/><use transform="matrix(0.022222222222222223,0,0,0.022222222222222223,45.06666666666666,0)" xlink:href="#ai"/><use transform="matrix(0.022222222222222223,0,0,0.022222222222222223,60.08888888888889,0)" xlink:href="#aj"/><use transform="matrix(0.022222222222222223,0,0,0.022222222222222223,65.55555555555556,0)" xlink:href="#ak"/><use transform="matrix(0.022222222222222223,0,0,0.022222222222222223,79.77777777777779,0)" xlink:href="#al"/><use transform="matrix(0.022222222222222223,0,0,0.022222222222222223,94.8,0)" xlink:href="#am"/></g><path fill="#333" d="M315-71c102 0 157-68 157-176v-301h91V0h-91v-81C441-29 376 8 297 8 154 4 72-80 72-227v-321h90v309c-2 103 55 168 153 168" id="an"/><path fill="#333" d="M736-558c142 3 222 89 222 235V0h-90v-310c2-103-53-169-150-169-100 1-155 70-155 177V0h-90v-310c2-103-53-169-150-169-100 1-155 70-155 177V0H77v-548h91v79c32-53 93-88 173-89 99 1 171 48 201 122 26-71 101-121 194-122" id="ao"/><path fill="#333" d="M168-446c34-61 110-112 205-111 163 6 260 114 260 281S536 2 373 9c-96 1-171-49-205-110V0H77v-740h91v294zm372 170c0-121-69-202-186-202-116 0-186 84-186 203 0 120 70 204 186 204 117 0 186-83 186-205" id="ap"/><path fill="#333" d="M314-557c178 0 281 125 260 317H136c3 101 78 172 178 172 80 1 134-42 154-101h98C538-67 445 11 314 9 145 4 43-103 43-275c0-173 100-282 271-282zm169 243c-2-105-69-163-173-166-97 0-167 70-173 166h346" id="aq"/><path fill="#333" d="M168-459c31-60 88-99 177-99v94c-118-7-177 46-177 166V0H77v-548h91v89" id="ar"/><g id="d"><use transform="matrix(0.022222222222222223,0,0,0.022222222222222223,0,0)" xlink:href="#ak"/><use transform="matrix(0.022222222222222223,0,0,0.022222222222222223,14.222222222222223,0)" xlink:href="#an"/><use transform="matrix(0.022222222222222223,0,0,0.022222222222222223,28.444444444444446,0)" xlink:href="#ao"/><use transform="matrix(0.022222222222222223,0,0,0.022222222222222223,51.333333333333336,0)" xlink:href="#ap"/><use transform="matrix(0.022222222222222223,0,0,0.022222222222222223,66.35555555555555,0)" xlink:href="#aq"/><use transform="matrix(0.022222222222222223,0,0,0.022222222222222223,80.13333333333333,0)" xlink:href="#ar"/></g><path fill="#333" d="M457-405v77H58v-77h399" id="as"/><use transform="matrix(0.022222222222222223,0,0,0.022222222222222223,0,0)" xlink:href="#as" id="e"/><path fill="#333" d="M43-275c0-171 99-277 267-282 137-1 227 73 253 185h-98c-17-64-74-109-155-108-111 1-174 85-174 205 0 121 62 206 174 207 83 0 137-42 155-108h98C536-69 444 10 310 9 141 4 43-103 43-275" id="at"/><path fill="#333" d="M281-84l170-464h97L333 0H227L12-548h98" id="au"/><path fill="#333" d="M471-149C477 38 162 52 79-72c-19-26-30-56-32-89h94c6 58 61 95 129 93 60 2 112-28 112-81 0-67-63-65-131-88-100-28-193-49-193-167 0-103 92-151 201-153 116-2 203 64 207 172h-91c-4-59-52-95-119-95-76 0-144 66-90 120 84 83 303 44 305 211" id="av"/><path fill="#333" d="M168-623v233h254v75H168v240h284V0H77v-698h375v75H168" id="aw"/><path fill="#333" d="M168-740V0H77v-740h91" id="ax"/><g id="f"><use transform="matrix(0.022222222222222223,0,0,0.022222222222222223,0,0)" xlink:href="#at"/><use transform="matrix(0.022222222222222223,0,0,0.022222222222222223,13.488888888888889,0)" xlink:href="#ah"/><use transform="matrix(0.022222222222222223,0,0,0.022222222222222223,28.511111111111113,0)" xlink:href="#ak"/><use transform="matrix(0.022222222222222223,0,0,0.022222222222222223,42.733333333333334,0)" xlink:href="#au"/><use transform="matrix(0.022222222222222223,0,0,0.022222222222222223,55.2,0)" xlink:href="#ah"/><use transform="matrix(0.022222222222222223,0,0,0.022222222222222223,70.22222222222223,0)" xlink:href="#av"/><use transform="matrix(0.022222222222222223,0,0,0.022222222222222223,81.82222222222222,0)" xlink:href="#aw"/><use transform="matrix(0.022222222222222223,0,0,0.022222222222222223,93.22222222222223,0)" xlink:href="#ax"/><use transform="matrix(0.022222222222222223,0,0,0.022222222222222223,98.6888888888889,0)" xlink:href="#am"/></g><path fill="#333" d="M614-697V0h-91v-316H168V0H77v-697h91v306h355v-306h91" id="ay"/><path fill="#333" d="M506-697v74H316V0h-91v-623H34v-74h472" id="az"/><path fill="#333" d="M784-692V0h-91v-516L463 0h-64L168-517V0H77v-692h98l256 572 256-572h97" id="aA"/><path fill="#333" d="M168-74h244V0H77v-697h91v623" id="aB"/><path fill="#333" d="M43-349c0-212 138-357 348-357 162 0 277 87 323 211H605c-35-78-105-131-214-131-162 0-255 111-255 277 0 165 94 276 255 276 108 0 179-52 214-130h109C668-80 553 6 391 6 181 6 43-137 43-349" id="aC"/><path fill="#333" d="M331 0C191 9 97-11 97-150v-323H26v-75h71v-138h91v138h143v75H188v323c-9 82 67 74 143 73V0" id="aD"/><g id="g"><use transform="matrix(0.022222222222222223,0,0,0.022222222222222223,0,0)" xlink:href="#ay"/><use transform="matrix(0.022222222222222223,0,0,0.022222222222222223,15.377777777777778,0)" xlink:href="#az"/><use transform="matrix(0.022222222222222223,0,0,0.022222222222222223,27.400000000000002,0)" xlink:href="#aA"/><use transform="matrix(0.022222222222222223,0,0,0.022222222222222223,46.53333333333334,0)" xlink:href="#aB"/><use transform="matrix(0.022222222222222223,0,0,0.022222222222222223,56.13333333333333,0)" xlink:href="#aC"/><use transform="matrix(0.022222222222222223,0,0,0.022222222222222223,73.28888888888889,0)" xlink:href="#ah"/><use transform="matrix(0.022222222222222223,0,0,0.022222222222222223,88.31111111111112,0)" xlink:href="#ak"/><use transform="matrix(0.022222222222222223,0,0,0.022222222222222223,102.53333333333333,0)" xlink:href="#au"/><use transform="matrix(0.022222222222222223,0,0,0.022222222222222223,115,0)" xlink:href="#ah"/><use transform="matrix(0.022222222222222223,0,0,0.022222222222222223,130.02222222222224,0)" xlink:href="#av"/><use transform="matrix(0.022222222222222223,0,0,0.022222222222222223,141.62222222222223,0)" xlink:href="#aw"/><use transform="matrix(0.022222222222222223,0,0,0.022222222222222223,153.02222222222224,0)" xlink:href="#ax"/><use transform="matrix(0.022222222222222223,0,0,0.022222222222222223,158.4888888888889,0)" xlink:href="#aq"/><use transform="matrix(0.022222222222222223,0,0,0.022222222222222223,172.26666666666668,0)" xlink:href="#ao"/><use transform="matrix(0.022222222222222223,0,0,0.022222222222222223,195.15555555555557,0)" xlink:href="#aq"/><use transform="matrix(0.022222222222222223,0,0,0.022222222222222223,208.93333333333334,0)" xlink:href="#ak"/><use transform="matrix(0.022222222222222223,0,0,0.022222222222222223,223.15555555555557,0)" xlink:href="#aD"/></g><path fill="#333" d="M363 0L233-204 108 0H13l177-272L13-548h103l130 203 124-203h95L289-277 466 0H363" id="aE"/><g id="h"><use transform="matrix(0.022222222222222223,0,0,0.022222222222222223,0,0)" xlink:href="#at"/><use transform="matrix(0.022222222222222223,0,0,0.022222222222222223,13.488888888888889,0)" xlink:href="#aD"/><use transform="matrix(0.022222222222222223,0,0,0.022222222222222223,21.577777777777776,0)" xlink:href="#aE"/><use transform="matrix(0.022222222222222223,0,0,0.022222222222222223,32.22222222222222,0)" xlink:href="#am"/></g><path fill="#333" d="M544-492c0 108-67 182-166 200L553 0H444L278-285H168V0H77v-697h225c144 2 242 67 242 205zm-94 0c-1-88-54-130-148-130H168v264h134c92 2 147-48 148-134" id="aF"/><path fill="#333" d="M316 9C147 9 43-103 43-275s107-282 277-282 277 110 277 282C597-102 486 9 316 9zm0-80c117 0 187-81 188-204-2-123-68-203-185-203-118 0-182 80-183 203 1 123 63 204 180 204" id="aG"/><path fill="#333" d="M287-736c134-2 226 81 224 214-1 127-93 232-162 300-42 40-96 85-161 138h344v76H51v-65c143-119 223-178 321-305 76-98 72-280-84-280-93 0-143 66-146 156H54c2-141 94-234 233-234" id="aH"/><path fill="#333" d="M294-697c229 3 370 124 370 350S523-3 294 0H77v-697h217zm0 622c176 2 277-99 277-272 1-174-101-278-277-276H168v548h126" id="aI"/><g id="i"><use transform="matrix(0.022222222222222223,0,0,0.022222222222222223,0,0)" xlink:href="#aC"/><use transform="matrix(0.022222222222222223,0,0,0.022222222222222223,17.155555555555555,0)" xlink:href="#ah"/><use transform="matrix(0.022222222222222223,0,0,0.022222222222222223,32.17777777777778,0)" xlink:href="#ak"/><use transform="matrix(0.022222222222222223,0,0,0.022222222222222223,46.4,0)" xlink:href="#au"/><use transform="matrix(0.022222222222222223,0,0,0.022222222222222223,58.86666666666667,0)" xlink:href="#ah"/><use transform="matrix(0.022222222222222223,0,0,0.022222222222222223,73.88888888888889,0)" xlink:href="#av"/><use transform="matrix(0.022222222222222223,0,0,0.022222222222222223,85.48888888888888,0)" xlink:href="#aF"/><use transform="matrix(0.022222222222222223,0,0,0.022222222222222223,98.99999999999999,0)" xlink:href="#aq"/><use transform="matrix(0.022222222222222223,0,0,0.022222222222222223,112.77777777777776,0)" xlink:href="#ak"/><use transform="matrix(0.022222222222222223,0,0,0.022222222222222223,127,0)" xlink:href="#ai"/><use transform="matrix(0.022222222222222223,0,0,0.022222222222222223,142.0222222222222,0)" xlink:href="#aq"/><use transform="matrix(0.022222222222222223,0,0,0.022222222222222223,155.79999999999998,0)" xlink:href="#ar"/><use transform="matrix(0.022222222222222223,0,0,0.022222222222222223,164.08888888888887,0)" xlink:href="#aj"/><use transform="matrix(0.022222222222222223,0,0,0.022222222222222223,169.55555555555554,0)" xlink:href="#ak"/><use transform="matrix(0.022222222222222223,0,0,0.022222222222222223,183.77777777777777,0)" xlink:href="#al"/><use transform="matrix(0.022222222222222223,0,0,0.022222222222222223,198.79999999999995,0)" xlink:href="#aC"/><use transform="matrix(0.022222222222222223,0,0,0.022222222222222223,215.95555555555558,0)" xlink:href="#aG"/><use transform="matrix(0.022222222222222223,0,0,0.022222222222222223,230.17777777777778,0)" xlink:href="#ak"/><use transform="matrix(0.022222222222222223,0,0,0.022222222222222223,244.4,0)" xlink:href="#aD"/><use transform="matrix(0.022222222222222223,0,0,0.022222222222222223,252.4888888888889,0)" xlink:href="#aq"/><use transform="matrix(0.022222222222222223,0,0,0.022222222222222223,266.26666666666665,0)" xlink:href="#aE"/><use transform="matrix(0.022222222222222223,0,0,0.022222222222222223,276.9111111111111,0)" xlink:href="#aD"/><use transform="matrix(0.022222222222222223,0,0,0.022222222222222223,285,0)" xlink:href="#aH"/><use transform="matrix(0.022222222222222223,0,0,0.022222222222222223,297.77777777777777,0)" xlink:href="#aI"/></g><path fill="#333" d="M807-548L636 0h-94L410-435 278 0h-94L12-548h93L231-88l136-460h93L593-87l124-461h90" id="aJ"/><path fill="#333" d="M349-558c140 4 219 90 219 235V0h-90v-310c2-103-54-169-153-169-101 1-157 69-157 176V0H77v-740h91v270c33-53 98-88 181-88" id="aK"/><path fill="#333" d="M311 186C190 70 108-134 108-366c0-241 87-450 218-568h95v9C286-803 196-604 196-366c0 231 86 418 210 543v9h-95" id="aL"/><path fill="#333" d="M346-366c0 232-82 436-203 552H48v-9C172 52 258-134 258-366c0-238-91-438-225-559v-9h95c132 118 218 327 218 568" id="aM"/><g id="j"><use transform="matrix(0.022222222222222223,0,0,0.022222222222222223,0,0)" xlink:href="#aJ"/><use transform="matrix(0.022222222222222223,0,0,0.022222222222222223,18.22222222222222,0)" xlink:href="#aj"/><use transform="matrix(0.022222222222222223,0,0,0.022222222222222223,23.68888888888889,0)" xlink:href="#ai"/><use transform="matrix(0.022222222222222223,0,0,0.022222222222222223,38.71111111111111,0)" xlink:href="#aD"/><use transform="matrix(0.022222222222222223,0,0,0.022222222222222223,46.800000000000004,0)" xlink:href="#aK"/><use transform="matrix(0.022222222222222223,0,0,0.022222222222222223,61.02222222222221,0)" xlink:href="#aL"/><use transform="matrix(0.022222222222222223,0,0,0.022222222222222223,71.11111111111111,0)" xlink:href="#aM"/><use transform="matrix(0.022222222222222223,0,0,0.022222222222222223,81.2,0)" xlink:href="#am"/></g><g id="k"><use transform="matrix(0.022222222222222223,0,0,0.022222222222222223,0,0)" xlink:href="#aK"/><use transform="matrix(0.022222222222222223,0,0,0.022222222222222223,14.222222222222223,0)" xlink:href="#aq"/><use transform="matrix(0.022222222222222223,0,0,0.022222222222222223,28,0)" xlink:href="#aj"/><use transform="matrix(0.022222222222222223,0,0,0.022222222222222223,33.46666666666667,0)" xlink:href="#al"/><use transform="matrix(0.022222222222222223,0,0,0.022222222222222223,48.488888888888894,0)" xlink:href="#aK"/><use transform="matrix(0.022222222222222223,0,0,0.022222222222222223,62.711111111111116,0)" xlink:href="#aD"/><use transform="matrix(0.022222222222222223,0,0,0.022222222222222223,70.80000000000001,0)" xlink:href="#aL"/><use transform="matrix(0.022222222222222223,0,0,0.022222222222222223,80.8888888888889,0)" xlink:href="#aM"/><use transform="matrix(0.022222222222222223,0,0,0.022222222222222223,90.97777777777779,0)" xlink:href="#am"/></g><g id="l"><use transform="matrix(0.022222222222222223,0,0,0.022222222222222223,0,0)" xlink:href="#aj"/><use transform="matrix(0.022222222222222223,0,0,0.022222222222222223,5.466666666666667,0)" xlink:href="#ak"/><use transform="matrix(0.022222222222222223,0,0,0.022222222222222223,19.68888888888889,0)" xlink:href="#aj"/><use transform="matrix(0.022222222222222223,0,0,0.022222222222222223,25.155555555555555,0)" xlink:href="#aD"/><use transform="matrix(0.022222222222222223,0,0,0.022222222222222223,33.24444444444445,0)" xlink:href="#aL"/><use transform="matrix(0.022222222222222223,0,0,0.022222222222222223,43.333333333333336,0)" xlink:href="#at"/><use transform="matrix(0.022222222222222223,0,0,0.022222222222222223,56.82222222222222,0)" xlink:href="#ah"/><use transform="matrix(0.022222222222222223,0,0,0.022222222222222223,71.84444444444445,0)" xlink:href="#ak"/><use transform="matrix(0.022222222222222223,0,0,0.022222222222222223,86.06666666666668,0)" xlink:href="#au"/><use transform="matrix(0.022222222222222223,0,0,0.022222222222222223,98.53333333333333,0)" xlink:href="#ah"/><use transform="matrix(0.022222222222222223,0,0,0.022222222222222223,113.55555555555559,0)" xlink:href="#av"/><use transform="matrix(0.022222222222222223,0,0,0.022222222222222223,125.15555555555557,0)" xlink:href="#aw"/><use transform="matrix(0.022222222222222223,0,0,0.022222222222222223,136.55555555555557,0)" xlink:href="#ax"/><use transform="matrix(0.022222222222222223,0,0,0.022222222222222223,142.02222222222224,0)" xlink:href="#aM"/></g><g id="m"><use transform="matrix(0.022222222222222223,0,0,0.022222222222222223,0,0)" xlink:href="#ar"/><use transform="matrix(0.022222222222222223,0,0,0.022222222222222223,8.28888888888889,0)" xlink:href="#aq"/><use transform="matrix(0.022222222222222223,0,0,0.022222222222222223,22.06666666666667,0)" xlink:href="#ak"/><use transform="matrix(0.022222222222222223,0,0,0.022222222222222223,36.28888888888889,0)" xlink:href="#ai"/><use transform="matrix(0.022222222222222223,0,0,0.022222222222222223,51.31111111111111,0)" xlink:href="#aq"/><use transform="matrix(0.022222222222222223,0,0,0.022222222222222223,65.0888888888889,0)" xlink:href="#ar"/><use transform="matrix(0.022222222222222223,0,0,0.022222222222222223,73.3777777777778,0)" xlink:href="#aL"/><use transform="matrix(0.022222222222222223,0,0,0.022222222222222223,83.46666666666668,0)" xlink:href="#aM"/></g><path fill="#333" d="M530-190C530-64 431 7 298 7 164 7 65-58 57-186h97c8 70 60 116 144 116 106 0 180-99 118-181-45-60-184-66-254-102-55-26-103-75-101-160 5-128 99-191 231-193 124-2 221 69 231 179H423c-8-58-67-104-140-101-72-1-133 40-129 112 6 94 80 101 163 127 115 32 213 59 213 199" id="aN"/><path fill="#333" d="M145-75h269V0H41v-75l266-399H43v-74h369v74" id="aO"/><g id="n"><use transform="matrix(0.022222222222222223,0,0,0.022222222222222223,0,0)" xlink:href="#an"/><use transform="matrix(0.022222222222222223,0,0,0.022222222222222223,14.222222222222223,0)" xlink:href="#ag"/><use transform="matrix(0.022222222222222223,0,0,0.022222222222222223,29.244444444444447,0)" xlink:href="#ai"/><use transform="matrix(0.022222222222222223,0,0,0.022222222222222223,44.266666666666666,0)" xlink:href="#ah"/><use transform="matrix(0.022222222222222223,0,0,0.022222222222222223,59.28888888888889,0)" xlink:href="#aD"/><use transform="matrix(0.022222222222222223,0,0,0.022222222222222223,67.37777777777778,0)" xlink:href="#aq"/><use transform="matrix(0.022222222222222223,0,0,0.022222222222222223,81.15555555555557,0)" xlink:href="#aC"/><use transform="matrix(0.022222222222222223,0,0,0.022222222222222223,98.31111111111112,0)" xlink:href="#ah"/><use transform="matrix(0.022222222222222223,0,0,0.022222222222222223,113.33333333333334,0)" xlink:href="#ak"/><use transform="matrix(0.022222222222222223,0,0,0.022222222222222223,127.55555555555559,0)" xlink:href="#au"/><use transform="matrix(0.022222222222222223,0,0,0.022222222222222223,140.02222222222224,0)" xlink:href="#ah"/><use transform="matrix(0.022222222222222223,0,0,0.022222222222222223,155.04444444444445,0)" xlink:href="#av"/><use transform="matrix(0.022222222222222223,0,0,0.022222222222222223,166.64444444444445,0)" xlink:href="#aN"/><use transform="matrix(0.022222222222222223,0,0,0.022222222222222223,179.6888888888889,0)" xlink:href="#aj"/><use transform="matrix(0.022222222222222223,0,0,0.022222222222222223,185.15555555555557,0)" xlink:href="#aO"/><use transform="matrix(0.022222222222222223,0,0,0.022222222222222223,195.26666666666668,0)" xlink:href="#aq"/><use transform="matrix(0.022222222222222223,0,0,0.022222222222222223,209.04444444444445,0)" xlink:href="#aL"/><use transform="matrix(0.022222222222222223,0,0,0.022222222222222223,219.13333333333335,0)" xlink:href="#aM"/></g><path fill="#333" d="M629-460l-38 180h138v80H574L531 0h-87l43-200H277L234 0h-87l43-200H33v-80h174l38-180H90v-80h172l43-200h87l-43 200h210l43-200h87l-43 200h139v80H629zm-87 0H332l-38 180h210" id="aP"/><use transform="matrix(0.022222222222222223,0,0,0.022222222222222223,0,0)" xlink:href="#aP" id="o"/><path fill="#333" d="M277-71c107-2 173-74 187-176v3l54-304h91L512 0h-91l14-80C397-30 327 7 245 8 112 11 36-84 61-227l57-321h90c-19 118-49 229-58 353-6 80 47 124 127 124" id="aQ"/><path fill="#333" d="M196-447c44-57 126-111 224-110 156 0 242 116 211 281C601-120 497 0 321 9c-92 2-158-48-186-110L72 260h-91l142-808h91zM316-71c140-7 219-106 226-251 2-94-63-160-154-156-138 7-219 105-226 249-3 93 64 162 154 158" id="aR"/><path fill="#333" d="M251 9C95 8 10-112 40-276c29-158 136-273 312-281 85-1 159 46 184 107l51-290h92L548 0h-92l19-103C433-43 351 10 251 9zm32-80c139-6 218-105 226-249 3-93-64-162-154-158-140 6-218 104-225 248-2 94 63 163 153 159" id="aS"/><path fill="#333" d="M250 9C94 8 10-112 40-276c29-157 135-273 311-281 92-2 159 45 184 109l18-100h92L548 0h-92l19-102C431-43 350 10 250 9zm33-80c139-6 218-105 226-249 3-93-64-162-154-158-140 6-218 104-225 248-2 94 63 163 153 159" id="aT"/><path fill="#333" d="M280 0C169 3 59 4 68-107c11-128 42-243 61-366H59l13-75h71l24-138h92l-24 138h142l-13 75H221c-20 117-46 230-60 349-7 61 75 44 133 47" id="aU"/><path fill="#333" d="M361-557c136 0 220 75 223 209-1 35-8 74-18 105H128C112-136 178-67 276-68c83 0 143-44 171-101h98C502-72 399 10 262 9 127 11 28-77 34-213c9-203 125-344 327-344zm126 248c40-165-164-218-270-125-38 30-64 72-77 125h347" id="aV"/><path fill="#333" d="M230 186C156 97 110-39 110-199c8-328 143-580 332-735h95l-1 9C352-770 200-539 200-217c0 163 50 297 126 394l-1 9h-95" id="aW"/><path fill="#333" d="M377-533C370-215 239 31 63 186h-95l1-9C142 30 284-223 288-517c-1-173-53-312-140-408l2-9h95c83 91 132 231 132 401" id="aX"/><g id="p"><use transform="matrix(0.022222222222222223,0,0,0.022222222222222223,0,0)" xlink:href="#aQ"/><use transform="matrix(0.022222222222222223,0,0,0.022222222222222223,14.222222222222223,0)" xlink:href="#aR"/><use transform="matrix(0.022222222222222223,0,0,0.022222222222222223,29.244444444444447,0)" xlink:href="#aS"/><use transform="matrix(0.022222222222222223,0,0,0.022222222222222223,44.266666666666666,0)" xlink:href="#aT"/><use transform="matrix(0.022222222222222223,0,0,0.022222222222222223,59.28888888888889,0)" xlink:href="#aU"/><use transform="matrix(0.022222222222222223,0,0,0.022222222222222223,67.37777777777778,0)" xlink:href="#aV"/><use transform="matrix(0.022222222222222223,0,0,0.022222222222222223,81.15555555555557,0)" xlink:href="#aW"/><use transform="matrix(0.022222222222222223,0,0,0.022222222222222223,91.26666666666667,0)" xlink:href="#aX"/></g><path fill="#333" d="M196-444c39-64 101-113 197-114l-17 94c-125-4-186 51-206 166L117 0H26l97-548h91" id="aY"/><path fill="#333" d="M853-548L585 0h-94l-54-436L227 0h-94L58-548h93l45 460 216-460h94l52 457 205-457h90" id="aZ"/><path fill="#333" d="M258 9C101 12 7-109 40-275c32-160 137-275 318-282 130-2 212 67 220 185h-98c-7-68-59-109-136-108-137 5-212 114-215 260-2 93 54 152 143 152 87-1 144-45 173-108h98C500-73 398 9 258 9" id="ba"/><path fill="#333" d="M287-277L415 0H312l-94-204L57 0h-96l226-272L59-548h103l93 202 160-202h96" id="bb"/><g id="q"><use transform="matrix(0.022222222222222223,0,0,0.022222222222222223,0,0)" xlink:href="#aS"/><use transform="matrix(0.022222222222222223,0,0,0.022222222222222223,15.022222222222222,0)" xlink:href="#aY"/><use transform="matrix(0.022222222222222223,0,0,0.022222222222222223,23.311111111111114,0)" xlink:href="#aT"/><use transform="matrix(0.022222222222222223,0,0,0.022222222222222223,38.33333333333333,0)" xlink:href="#aZ"/><use transform="matrix(0.022222222222222223,0,0,0.022222222222222223,56.55555555555555,0)" xlink:href="#aW"/><use transform="matrix(0.022222222222222223,0,0,0.022222222222222223,66.66666666666666,0)" xlink:href="#ba"/><use transform="matrix(0.022222222222222223,0,0,0.022222222222222223,80.15555555555555,0)" xlink:href="#aU"/><use transform="matrix(0.022222222222222223,0,0,0.022222222222222223,88.24444444444444,0)" xlink:href="#bb"/><use transform="matrix(0.022222222222222223,0,0,0.022222222222222223,98.88888888888889,0)" xlink:href="#aX"/></g><path fill="#333" d="M857-702V0H686v-421L529 0H391L233-422V0H62v-702h202l197 486 195-486h201" id="bc"/><path fill="#333" d="M316 8C140 8 28-101 28-279c0-177 114-287 290-287s290 110 290 287S492 8 316 8zm0-148c72-1 118-59 118-139s-44-138-116-139c-73 1-116 57-116 139 0 80 42 138 114 139" id="bd"/><path fill="#333" d="M28-280c0-165 87-279 246-286 77 0 141 37 172 85v-259h171V0H446v-80C416-29 354 9 274 8 115 1 28-114 28-280zm418 1c0-78-50-138-122-138s-122 59-122 137 50 139 122 139 122-60 122-138" id="be"/><path fill="#333" d="M334-137c69 0 108-47 108-118v-303h171V0H442v-76C410-30 348 6 273 6 133 3 57-89 57-232v-326h170v303c-1 71 39 118 107 118" id="bf"/><path fill="#333" d="M233-740V0H62v-740h171" id="bg"/><path fill="#333" d="M310-566c187 0 295 127 275 328H198c3 63 44 106 106 107 43 0 72-18 89-54h182C543-71 453 8 310 8 135 8 28-102 28-279c0-178 106-287 282-287zm103 233c7-88-116-125-177-71-20 17-32 40-37 71h214" id="bh"/><g id="s"><use transform="matrix(0.059999999999999935,0,0,0.059999999999999935,0,0)" xlink:href="#bc"/><use transform="matrix(0.059999999999999935,0,0,0.059999999999999935,55.07999999999994,0)" xlink:href="#bd"/><use transform="matrix(0.059999999999999935,0,0,0.059999999999999935,93.2999999999999,0)" xlink:href="#be"/><use transform="matrix(0.059999999999999935,0,0,0.059999999999999935,134.03999999999985,0)" xlink:href="#bf"/><use transform="matrix(0.059999999999999935,0,0,0.059999999999999935,174.4799999999998,0)" xlink:href="#bg"/><use transform="matrix(0.059999999999999935,0,0,0.059999999999999935,192.17999999999978,0)" xlink:href="#bh"/></g><path fill="#333" d="M774-564c140-1 227 94 227 238V0H831v-303c1-70-39-113-107-113s-108 43-107 113V0H447v-303c1-70-39-113-107-113s-108 43-107 113V0H62v-558h171v70c32-44 89-76 163-76 90 0 157 43 190 104 34-55 103-104 188-104" id="bi"/><path fill="#333" d="M408-383c-110-6-175 15-175 124V0H62v-558h171v93c35-54 92-98 175-99v181" id="bj"/><path fill="#333" d="M492-422v142H52v-142h440" id="bk"/><path fill="#333" d="M28-279c0-177 105-283 280-287 146 0 242 85 268 210H394c-15-43-45-64-89-64-71 2-104 61-103 141-1 80 32 139 103 141 44 0 74-21 89-64h182C550-79 452 8 308 8 133 4 28-102 28-279" id="bl"/><path fill="#333" d="M28-280c0-165 87-279 246-286 80-1 142 37 172 87v-79h171V0H446v-79C414-29 354 9 273 8 115 0 28-115 28-280zm418 1c0-78-50-138-122-138s-122 59-122 137 50 139 122 139 122-60 122-138" id="bm"/><path fill="#333" d="M402-564c135-1 215 98 215 238V0H447v-303c1-71-39-118-107-118s-107 47-107 118V0H62v-558h171v74c32-46 93-80 169-80" id="bn"/><path fill="#333" d="M313-160l121-398h182L418 0H207L9-558h183" id="bo"/><path fill="#333" d="M515-162C519 46 156 50 69-86c-22-29-34-61-37-97h169c3 39 42 65 86 65 58 0 93-56 42-80-109-45-283-39-279-195 6-119 100-171 227-173 134-2 223 73 235 190H354c-5-39-37-63-82-63-57 0-86 57-36 79 115 44 279 42 279 198" id="bp"/><g id="t"><use transform="matrix(0.059999999999999935,0,0,0.059999999999999935,0,0)" xlink:href="#bi"/><use transform="matrix(0.059999999999999935,0,0,0.059999999999999935,63.53999999999993,0)" xlink:href="#bj"/><use transform="matrix(0.059999999999999935,0,0,0.059999999999999935,89.2199999999999,0)" xlink:href="#bi"/><use transform="matrix(0.059999999999999935,0,0,0.059999999999999935,152.75999999999982,0)" xlink:href="#bk"/><use transform="matrix(0.059999999999999935,0,0,0.059999999999999935,187.55999999999977,0)" xlink:href="#bl"/><use transform="matrix(0.059999999999999935,0,0,0.059999999999999935,223.85999999999973,0)" xlink:href="#bm"/><use transform="matrix(0.059999999999999935,0,0,0.059999999999999935,264.5999999999997,0)" xlink:href="#bn"/><use transform="matrix(0.059999999999999935,0,0,0.059999999999999935,305.0399999999996,0)" xlink:href="#bo"/><use transform="matrix(0.059999999999999935,0,0,0.059999999999999935,342.59999999999957,0)" xlink:href="#bm"/><use transform="matrix(0.059999999999999935,0,0,0.059999999999999935,383.3399999999995,0)" xlink:href="#bp"/></g><path fill="#333" d="M567-702v137H381V0H210v-565H24v-137h543" id="bq"/><path fill="#333" d="M499-124H237L195 0H16l254-702h198L722 0H541zm-44-132l-87-257-86 257h173" id="br"/><path fill="#333" d="M392 0L285-155 195 0H10l184-285L5-558h192l107 154 90-154h185L392-277 584 0H392" id="bs"/><path fill="#333" d="M33-352c0-217 137-354 353-358 173-3 298 103 333 246H531c-24-53-75-89-147-90-109-1-177 88-177 202 0 115 68 203 177 202 72-1 123-37 147-90h188C684-97 559 8 386 5 170 1 33-135 33-352" id="bt"/><g id="u"><use transform="matrix(0.022222222222222223,0,0,0.022222222222222223,0,0)" xlink:href="#bq"/><use transform="matrix(0.022222222222222223,0,0,0.022222222222222223,13.133333333333335,0)" xlink:href="#bj"/><use transform="matrix(0.022222222222222223,0,0,0.022222222222222223,22.644444444444446,0)" xlink:href="#bh"/><use transform="matrix(0.022222222222222223,0,0,0.022222222222222223,36.333333333333336,0)" xlink:href="#bh"/><use transform="matrix(0.022222222222222223,0,0,0.022222222222222223,50.022222222222226,0)" xlink:href="#br"/><use transform="matrix(0.022222222222222223,0,0,0.022222222222222223,66.4,0)" xlink:href="#bs"/><use transform="matrix(0.022222222222222223,0,0,0.022222222222222223,79.46666666666667,0)" xlink:href="#bh"/><use transform="matrix(0.022222222222222223,0,0,0.022222222222222223,93.15555555555557,0)" xlink:href="#bp"/><use transform="matrix(0.022222222222222223,0,0,0.022222222222222223,105.55555555555559,0)" xlink:href="#bt"/><use transform="matrix(0.022222222222222223,0,0,0.022222222222222223,122.48888888888891,0)" xlink:href="#bm"/><use transform="matrix(0.022222222222222223,0,0,0.022222222222222223,137.5777777777778,0)" xlink:href="#bn"/><use transform="matrix(0.022222222222222223,0,0,0.022222222222222223,152.5555555555556,0)" xlink:href="#bo"/><use transform="matrix(0.022222222222222223,0,0,0.022222222222222223,166.4666666666667,0)" xlink:href="#bm"/><use transform="matrix(0.022222222222222223,0,0,0.022222222222222223,181.5555555555556,0)" xlink:href="#bp"/></g><path fill="#333" d="M489-155H185L129 0H33l252-693h105L641 0h-96zm-26-74L337-581 211-229h252" id="bu"/><path fill="#333" d="M362-348L576 0H473L306-272 147 0H46l213-348L45-697h102l168 273 160-273h102" id="bv"/><path fill="#333" d="M168-697V0H77v-697h91" id="bw"/><path fill="#333" d="M637 38v84H105V38h532" id="bx"/><path fill="#333" d="M426-359c79 16 138 80 138 172C564-62 468 0 337 0H77v-697h250c128 2 216 56 221 177 0 88-54 139-122 161zm29-150c-1-76-55-113-136-113H168v226h153c79 1 134-38 134-113zM329-75c84 1 144-41 144-121 1-80-63-125-147-125H168v246h161" id="by"/><path fill="#333" d="M154-79h340V0H46v-72l338-546H50v-79h442v72" id="bz"/><path fill="#333" d="M543-493c0 129-95 206-241 202H168V0H77v-697h225c143-4 241 73 241 204zM302-366c94 1 146-39 148-127 0-86-49-129-148-129H168v256h134" id="bA"/><g id="v"><use transform="matrix(0.022222222222222223,0,0,0.022222222222222223,0,0)" xlink:href="#bu"/><use transform="matrix(0.022222222222222223,0,0,0.022222222222222223,14.977777777777778,0)" xlink:href="#bv"/><use transform="matrix(0.022222222222222223,0,0,0.022222222222222223,28.77777777777778,0)" xlink:href="#bw"/><use transform="matrix(0.022222222222222223,0,0,0.022222222222222223,34.24444444444445,0)" xlink:href="#aN"/><use transform="matrix(0.022222222222222223,0,0,0.022222222222222223,47.28888888888889,0)" xlink:href="#bx"/><use transform="matrix(0.022222222222222223,0,0,0.022222222222222223,63.57777777777778,0)" xlink:href="#aB"/><use transform="matrix(0.022222222222222223,0,0,0.022222222222222223,73.17777777777778,0)" xlink:href="#bu"/><use transform="matrix(0.022222222222222223,0,0,0.022222222222222223,88.15555555555555,0)" xlink:href="#by"/><use transform="matrix(0.022222222222222223,0,0,0.022222222222222223,101.77777777777776,0)" xlink:href="#aw"/><use transform="matrix(0.022222222222222223,0,0,0.022222222222222223,113.17777777777778,0)" xlink:href="#aB"/><use transform="matrix(0.022222222222222223,0,0,0.022222222222222223,122.77777777777776,0)" xlink:href="#bx"/><use transform="matrix(0.022222222222222223,0,0,0.022222222222222223,139.06666666666666,0)" xlink:href="#aN"/><use transform="matrix(0.022222222222222223,0,0,0.022222222222222223,152.11111111111111,0)" xlink:href="#bw"/><use transform="matrix(0.022222222222222223,0,0,0.022222222222222223,157.57777777777778,0)" xlink:href="#bz"/><use transform="matrix(0.022222222222222223,0,0,0.022222222222222223,169.6,0)" xlink:href="#aw"/><use transform="matrix(0.022222222222222223,0,0,0.022222222222222223,181,0)" xlink:href="#bx"/><use transform="matrix(0.022222222222222223,0,0,0.022222222222222223,197.2888888888889,0)" xlink:href="#bA"/><use transform="matrix(0.022222222222222223,0,0,0.022222222222222223,210.15555555555557,0)" xlink:href="#bv"/></g><path fill="#333" d="M621-512v77H101v-77h520zm0 215v77H101v-77h520" id="bB"/><use transform="matrix(0.022222222222222223,0,0,0.022222222222222223,0,0)" xlink:href="#bB" id="w"/><path fill="#333" d="M40-161v-69l351-486h109v476h100v79H500V0h-90v-161H40zm374-460L145-240h269v-381" id="bC"/><g id="x"><use transform="matrix(0.022222222222222223,0,0,0.022222222222222223,0,0)" xlink:href="#aH"/><use transform="matrix(0.022222222222222223,0,0,0.022222222222222223,12.777777777777779,0)" xlink:href="#bC"/></g><g id="y"><use transform="matrix(0.022222222222222223,0,0,0.022222222222222223,0,0)" xlink:href="#ao"/><use transform="matrix(0.022222222222222223,0,0,0.022222222222222223,22.88888888888889,0)" xlink:href="#ah"/><use transform="matrix(0.022222222222222223,0,0,0.022222222222222223,37.91111111111111,0)" xlink:href="#aE"/><use transform="matrix(0.022222222222222223,0,0,0.022222222222222223,48.55555555555556,0)" xlink:href="#bu"/><use transform="matrix(0.022222222222222223,0,0,0.022222222222222223,63.53333333333334,0)" xlink:href="#ap"/><use transform="matrix(0.022222222222222223,0,0,0.022222222222222223,78.55555555555556,0)" xlink:href="#av"/><use transform="matrix(0.022222222222222223,0,0,0.022222222222222223,90.15555555555555,0)" xlink:href="#at"/><use transform="matrix(0.022222222222222223,0,0,0.022222222222222223,103.64444444444445,0)" xlink:href="#aj"/><use transform="matrix(0.022222222222222223,0,0,0.022222222222222223,109.11111111111111,0)" xlink:href="#av"/><use transform="matrix(0.022222222222222223,0,0,0.022222222222222223,120.71111111111112,0)" xlink:href="#av"/><use transform="matrix(0.022222222222222223,0,0,0.022222222222222223,132.3111111111111,0)" xlink:href="#ah"/><use transform="matrix(0.022222222222222223,0,0,0.022222222222222223,147.33333333333331,0)" xlink:href="#am"/></g><path fill="#333" d="M393 7C182 7 43-136 43-349s139-356 350-356c212 0 350 142 350 356S605 7 393 7zm0-79c162 0 257-112 257-277 0-166-94-277-257-277S136-515 136-349c0 165 95 277 257 277" id="bD"/><g id="z"><use transform="matrix(0.022222222222222223,0,0,0.022222222222222223,0,0)" xlink:href="#ao"/><use transform="matrix(0.022222222222222223,0,0,0.022222222222222223,22.88888888888889,0)" xlink:href="#ah"/><use transform="matrix(0.022222222222222223,0,0,0.022222222222222223,37.91111111111111,0)" xlink:href="#aE"/><use transform="matrix(0.022222222222222223,0,0,0.022222222222222223,48.55555555555556,0)" xlink:href="#bD"/><use transform="matrix(0.022222222222222223,0,0,0.022222222222222223,66.02222222222223,0)" xlink:href="#ar"/><use transform="matrix(0.022222222222222223,0,0,0.022222222222222223,74.31111111111112,0)" xlink:href="#ai"/><use transform="matrix(0.022222222222222223,0,0,0.022222222222222223,89.33333333333334,0)" xlink:href="#aj"/><use transform="matrix(0.022222222222222223,0,0,0.022222222222222223,94.8,0)" xlink:href="#ak"/><use transform="matrix(0.022222222222222223,0,0,0.022222222222222223,109.02222222222224,0)" xlink:href="#ah"/><use transform="matrix(0.022222222222222223,0,0,0.022222222222222223,124.04444444444447,0)" xlink:href="#aD"/><use transform="matrix(0.022222222222222223,0,0,0.022222222222222223,132.13333333333335,0)" xlink:href="#aq"/><use transform="matrix(0.022222222222222223,0,0,0.022222222222222223,145.91111111111113,0)" xlink:href="#am"/></g><g id="A"><use transform="matrix(0.022222222222222223,0,0,0.022222222222222223,0,0)" xlink:href="#at"/><use transform="matrix(0.022222222222222223,0,0,0.022222222222222223,13.488888888888889,0)" xlink:href="#aq"/><use transform="matrix(0.022222222222222223,0,0,0.022222222222222223,27.26666666666667,0)" xlink:href="#ax"/><use transform="matrix(0.022222222222222223,0,0,0.022222222222222223,32.733333333333334,0)" xlink:href="#ax"/><use transform="matrix(0.022222222222222223,0,0,0.022222222222222223,38.2,0)" xlink:href="#aN"/><use transform="matrix(0.022222222222222223,0,0,0.022222222222222223,51.24444444444445,0)" xlink:href="#aj"/><use transform="matrix(0.022222222222222223,0,0,0.022222222222222223,56.711111111111116,0)" xlink:href="#aO"/><use transform="matrix(0.022222222222222223,0,0,0.022222222222222223,66.82222222222222,0)" xlink:href="#aq"/><use transform="matrix(0.022222222222222223,0,0,0.022222222222222223,80.6,0)" xlink:href="#bA"/><use transform="matrix(0.022222222222222223,0,0,0.022222222222222223,93.46666666666667,0)" xlink:href="#aE"/><use transform="matrix(0.022222222222222223,0,0,0.022222222222222223,104.11111111111111,0)" xlink:href="#am"/></g><g id="B"><use transform="matrix(0.022222222222222223,0,0,0.022222222222222223,0,0)" xlink:href="#ak"/><use transform="matrix(0.022222222222222223,0,0,0.022222222222222223,14.222222222222223,0)" xlink:href="#an"/><use transform="matrix(0.022222222222222223,0,0,0.022222222222222223,28.444444444444446,0)" xlink:href="#ao"/><use transform="matrix(0.022222222222222223,0,0,0.022222222222222223,51.333333333333336,0)" xlink:href="#ap"/><use transform="matrix(0.022222222222222223,0,0,0.022222222222222223,66.35555555555555,0)" xlink:href="#aq"/><use transform="matrix(0.022222222222222223,0,0,0.022222222222222223,80.13333333333333,0)" xlink:href="#ar"/></g><g id="C"><use transform="matrix(0.022222222222222223,0,0,0.022222222222222223,0,0)" xlink:href="#at"/><use transform="matrix(0.022222222222222223,0,0,0.022222222222222223,13.488888888888889,0)" xlink:href="#aq"/><use transform="matrix(0.022222222222222223,0,0,0.022222222222222223,27.26666666666667,0)" xlink:href="#ax"/><use transform="matrix(0.022222222222222223,0,0,0.022222222222222223,32.733333333333334,0)" xlink:href="#ax"/><use transform="matrix(0.022222222222222223,0,0,0.022222222222222223,38.2,0)" xlink:href="#aN"/><use transform="matrix(0.022222222222222223,0,0,0.022222222222222223,51.24444444444445,0)" xlink:href="#aj"/><use transform="matrix(0.022222222222222223,0,0,0.022222222222222223,56.711111111111116,0)" xlink:href="#aO"/><use transform="matrix(0.022222222222222223,0,0,0.022222222222222223,66.82222222222222,0)" xlink:href="#aq"/><use transform="matrix(0.022222222222222223,0,0,0.022222222222222223,80.6,0)" xlink:href="#aL"/><use transform="matrix(0.022222222222222223,0,0,0.022222222222222223,90.68888888888888,0)" xlink:href="#aM"/><use transform="matrix(0.022222222222222223,0,0,0.022222222222222223,100.77777777777776,0)" xlink:href="#am"/></g><g id="D"><use transform="matrix(0.022222222222222223,0,0,0.022222222222222223,0,0)" xlink:href="#ai"/><use transform="matrix(0.022222222222222223,0,0,0.022222222222222223,15.022222222222222,0)" xlink:href="#ar"/><use transform="matrix(0.022222222222222223,0,0,0.022222222222222223,23.311111111111114,0)" xlink:href="#ah"/><use transform="matrix(0.022222222222222223,0,0,0.022222222222222223,38.33333333333333,0)" xlink:href="#aJ"/><use transform="matrix(0.022222222222222223,0,0,0.022222222222222223,56.55555555555555,0)" xlink:href="#bv"/><use transform="matrix(0.022222222222222223,0,0,0.022222222222222223,70.35555555555555,0)" xlink:href="#aB"/><use transform="matrix(0.022222222222222223,0,0,0.022222222222222223,79.95555555555555,0)" xlink:href="#ah"/><use transform="matrix(0.022222222222222223,0,0,0.022222222222222223,94.97777777777777,0)" xlink:href="#ap"/><use transform="matrix(0.022222222222222223,0,0,0.022222222222222223,110,0)" xlink:href="#aq"/><use transform="matrix(0.022222222222222223,0,0,0.022222222222222223,123.77777777777776,0)" xlink:href="#ax"/><use transform="matrix(0.022222222222222223,0,0,0.022222222222222223,129.24444444444444,0)" xlink:href="#av"/><use transform="matrix(0.022222222222222223,0,0,0.022222222222222223,140.84444444444443,0)" xlink:href="#aL"/><use transform="matrix(0.022222222222222223,0,0,0.022222222222222223,150.93333333333334,0)" xlink:href="#aM"/></g><path fill="#333" d="M565-697L338-263V0h-91v-263L19-697h101l172 353 172-353h101" id="bE"/><g id="E"><use transform="matrix(0.022222222222222223,0,0,0.022222222222222223,0,0)" xlink:href="#ai"/><use transform="matrix(0.022222222222222223,0,0,0.022222222222222223,15.022222222222222,0)" xlink:href="#ar"/><use transform="matrix(0.022222222222222223,0,0,0.022222222222222223,23.311111111111114,0)" xlink:href="#ah"/><use transform="matrix(0.022222222222222223,0,0,0.022222222222222223,38.33333333333333,0)" xlink:href="#aJ"/><use transform="matrix(0.022222222222222223,0,0,0.022222222222222223,56.55555555555555,0)" xlink:href="#bE"/><use transform="matrix(0.022222222222222223,0,0,0.022222222222222223,69.53333333333333,0)" xlink:href="#aB"/><use transform="matrix(0.022222222222222223,0,0,0.022222222222222223,79.13333333333333,0)" xlink:href="#ah"/><use transform="matrix(0.022222222222222223,0,0,0.022222222222222223,94.15555555555557,0)" xlink:href="#ap"/><use transform="matrix(0.022222222222222223,0,0,0.022222222222222223,109.17777777777778,0)" xlink:href="#aq"/><use transform="matrix(0.022222222222222223,0,0,0.022222222222222223,122.95555555555553,0)" xlink:href="#ax"/><use transform="matrix(0.022222222222222223,0,0,0.022222222222222223,128.42222222222222,0)" xlink:href="#av"/><use transform="matrix(0.022222222222222223,0,0,0.022222222222222223,140.0222222222222,0)" xlink:href="#aL"/><use transform="matrix(0.022222222222222223,0,0,0.022222222222222223,150.1111111111111,0)" xlink:href="#aM"/></g><path fill="#333" d="M294-688c-94-4-115 45-109 140h115v75H185V0H94v-473H23v-75h71c-9-152 49-218 200-216v76" id="bF"/><path fill="#333" d="M106 6C72 7 43-22 44-56c-1-34 28-63 62-62 33-1 61 29 60 62 1 33-27 63-60 62" id="bG"/><g id="F"><use transform="matrix(0.03777777777777775,0,0,0.03777777777777775,0,0)" xlink:href="#ao"/><use transform="matrix(0.03777777777777775,0,0,0.03777777777777775,38.91111111111108,0)" xlink:href="#ah"/><use transform="matrix(0.03777777777777775,0,0,0.03777777777777775,64.44888888888885,0)" xlink:href="#aD"/><use transform="matrix(0.03777777777777775,0,0,0.03777777777777775,78.19999999999995,0)" xlink:href="#aK"/><use transform="matrix(0.03777777777777775,0,0,0.03777777777777775,102.37777777777771,0)" xlink:href="#av"/><use transform="matrix(0.03777777777777775,0,0,0.03777777777777775,122.0977777777777,0)" xlink:href="#aG"/><use transform="matrix(0.03777777777777775,0,0,0.03777777777777775,146.27555555555546,0)" xlink:href="#bF"/><use transform="matrix(0.03777777777777775,0,0,0.03777777777777775,158.70444444444433,0)" xlink:href="#aD"/><use transform="matrix(0.03777777777777775,0,0,0.03777777777777775,172.45555555555543,0)" xlink:href="#aJ"/><use transform="matrix(0.03777777777777775,0,0,0.03777777777777775,203.4333333333332,0)" xlink:href="#ah"/><use transform="matrix(0.03777777777777775,0,0,0.03777777777777775,228.97111111111096,0)" xlink:href="#ar"/><use transform="matrix(0.03777777777777775,0,0,0.03777777777777775,243.06222222222203,0)" xlink:href="#aq"/><use transform="matrix(0.03777777777777775,0,0,0.03777777777777775,266.48444444444425,0)" xlink:href="#bG"/><use transform="matrix(0.03777777777777775,0,0,0.03777777777777775,274.4177777777776,0)" xlink:href="#aq"/><use transform="matrix(0.03777777777777775,0,0,0.03777777777777775,297.8399999999998,0)" xlink:href="#ak"/><use transform="matrix(0.03777777777777775,0,0,0.03777777777777775,322.01777777777755,0)" xlink:href="#al"/><use transform="matrix(0.03777777777777775,0,0,0.03777777777777775,347.5555555555553,0)" xlink:href="#aj"/><use transform="matrix(0.03777777777777775,0,0,0.03777777777777775,356.8488888888887,0)" xlink:href="#ak"/><use transform="matrix(0.03777777777777775,0,0,0.03777777777777775,381.0266666666664,0)" xlink:href="#aq"/><use transform="matrix(0.03777777777777775,0,0,0.03777777777777775,404.4488888888887,0)" xlink:href="#aq"/><use transform="matrix(0.03777777777777775,0,0,0.03777777777777775,427.87111111111085,0)" xlink:href="#ar"/></g><path fill="#333" d="M572-209C566-68 464 7 316 7 162 7 51-63 42-210h182c4 49 36 76 87 80 67 5 108-64 65-109-46-46-169-63-227-95-55-31-107-81-105-169-1-136 115-211 256-209 147-2 257 74 263 210H378c-2-45-37-73-84-73-70 0-93 86-37 117 43 24 167 59 211 85 54 28 106 79 104 164" id="bH"/><path fill="#333" d="M260-192c-6 59 60 46 113 47V0C201 12 89-26 89-194v-222H21v-142h68v-136h171v136h112v142H260v224" id="bI"/><path fill="#333" d="M148-616c-56 2-103-39-102-92-1-54 46-95 102-93 55-2 102 39 101 93 1 53-46 94-101 92zm85 58V0H62v-558h171" id="bJ"/><g id="G"><use transform="matrix(0.022222222222222223,0,0,0.022222222222222223,0,0)" xlink:href="#bH"/><use transform="matrix(0.022222222222222223,0,0,0.022222222222222223,13.666666666666668,0)" xlink:href="#bd"/><use transform="matrix(0.022222222222222223,0,0,0.022222222222222223,27.822222222222223,0)" xlink:href="#bg"/><use transform="matrix(0.022222222222222223,0,0,0.022222222222222223,34.37777777777778,0)" xlink:href="#bf"/><use transform="matrix(0.022222222222222223,0,0,0.022222222222222223,49.355555555555554,0)" xlink:href="#bI"/><use transform="matrix(0.022222222222222223,0,0,0.022222222222222223,58.37777777777778,0)" xlink:href="#bJ"/><use transform="matrix(0.022222222222222223,0,0,0.022222222222222223,64.93333333333334,0)" xlink:href="#bd"/><use transform="matrix(0.022222222222222223,0,0,0.022222222222222223,79.08888888888889,0)" xlink:href="#bn"/><use transform="matrix(0.022222222222222223,0,0,0.022222222222222223,94.06666666666668,0)" xlink:href="#bp"/><use transform="matrix(0.022222222222222223,0,0,0.022222222222222223,106.46666666666667,0)" xlink:href="#bq"/><use transform="matrix(0.022222222222222223,0,0,0.022222222222222223,119.60000000000001,0)" xlink:href="#bj"/><use transform="matrix(0.022222222222222223,0,0,0.022222222222222223,129.11111111111111,0)" xlink:href="#bh"/><use transform="matrix(0.022222222222222223,0,0,0.022222222222222223,142.8,0)" xlink:href="#bh"/><use transform="matrix(0.022222222222222223,0,0,0.022222222222222223,156.4888888888889,0)" xlink:href="#bt"/><use transform="matrix(0.022222222222222223,0,0,0.022222222222222223,173.42222222222225,0)" xlink:href="#bm"/><use transform="matrix(0.022222222222222223,0,0,0.022222222222222223,188.51111111111115,0)" xlink:href="#bn"/><use transform="matrix(0.022222222222222223,0,0,0.022222222222222223,203.48888888888894,0)" xlink:href="#bo"/><use transform="matrix(0.022222222222222223,0,0,0.022222222222222223,217.40000000000006,0)" xlink:href="#bm"/><use transform="matrix(0.022222222222222223,0,0,0.022222222222222223,232.48888888888894,0)" xlink:href="#bp"/></g><path fill="#333" d="M625 0h-91L168-555V0H77v-698h91l366 554v-554h91V0" id="bK"/><g id="H"><use transform="matrix(0.022222222222222223,0,0,0.022222222222222223,0,0)" xlink:href="#ar"/><use transform="matrix(0.022222222222222223,0,0,0.022222222222222223,8.28888888888889,0)" xlink:href="#aG"/><use transform="matrix(0.022222222222222223,0,0,0.022222222222222223,22.511111111111113,0)" xlink:href="#aG"/><use transform="matrix(0.022222222222222223,0,0,0.022222222222222223,36.733333333333334,0)" xlink:href="#aD"/><use transform="matrix(0.022222222222222223,0,0,0.022222222222222223,44.82222222222222,0)" xlink:href="#bK"/><use transform="matrix(0.022222222222222223,0,0,0.022222222222222223,60.44444444444445,0)" xlink:href="#aG"/><use transform="matrix(0.022222222222222223,0,0,0.022222222222222223,74.66666666666667,0)" xlink:href="#ai"/><use transform="matrix(0.022222222222222223,0,0,0.022222222222222223,89.6888888888889,0)" xlink:href="#aq"/><use transform="matrix(0.022222222222222223,0,0,0.022222222222222223,103.46666666666667,0)" xlink:href="#am"/></g><g id="I"><use transform="matrix(0.022222222222222223,0,0,0.022222222222222223,0,0)" xlink:href="#az"/><use transform="matrix(0.022222222222222223,0,0,0.022222222222222223,12.022222222222222,0)" xlink:href="#ar"/><use transform="matrix(0.022222222222222223,0,0,0.022222222222222223,20.31111111111111,0)" xlink:href="#aq"/><use transform="matrix(0.022222222222222223,0,0,0.022222222222222223,34.08888888888889,0)" xlink:href="#aq"/><use transform="matrix(0.022222222222222223,0,0,0.022222222222222223,47.86666666666667,0)" xlink:href="#bK"/><use transform="matrix(0.022222222222222223,0,0,0.022222222222222223,63.488888888888894,0)" xlink:href="#aG"/><use transform="matrix(0.022222222222222223,0,0,0.022222222222222223,77.71111111111112,0)" xlink:href="#ai"/><use transform="matrix(0.022222222222222223,0,0,0.022222222222222223,92.73333333333336,0)" xlink:href="#aq"/></g><g id="J"><use transform="matrix(0.022222222222222223,0,0,0.022222222222222223,0,0)" xlink:href="#ar"/><use transform="matrix(0.022222222222222223,0,0,0.022222222222222223,8.28888888888889,0)" xlink:href="#ah"/><use transform="matrix(0.022222222222222223,0,0,0.022222222222222223,23.311111111111114,0)" xlink:href="#ai"/><use transform="matrix(0.022222222222222223,0,0,0.022222222222222223,38.33333333333333,0)" xlink:href="#aj"/><use transform="matrix(0.022222222222222223,0,0,0.022222222222222223,43.8,0)" xlink:href="#an"/><use transform="matrix(0.022222222222222223,0,0,0.022222222222222223,58.02222222222221,0)" xlink:href="#av"/><use transform="matrix(0.022222222222222223,0,0,0.022222222222222223,69.62222222222222,0)" xlink:href="#bA"/><use transform="matrix(0.022222222222222223,0,0,0.022222222222222223,82.48888888888888,0)" xlink:href="#aE"/><use transform="matrix(0.022222222222222223,0,0,0.022222222222222223,93.13333333333331,0)" xlink:href="#am"/></g><path fill="#333" d="M171-126L59 143H-2l73-269h100" id="bL"/><g id="K"><use transform="matrix(0.022222222222222223,0,0,0.022222222222222223,0,0)" xlink:href="#ai"/><use transform="matrix(0.022222222222222223,0,0,0.022222222222222223,15.022222222222222,0)" xlink:href="#ar"/><use transform="matrix(0.022222222222222223,0,0,0.022222222222222223,23.311111111111114,0)" xlink:href="#ah"/><use transform="matrix(0.022222222222222223,0,0,0.022222222222222223,38.33333333333333,0)" xlink:href="#aJ"/><use transform="matrix(0.022222222222222223,0,0,0.022222222222222223,56.55555555555555,0)" xlink:href="#bK"/><use transform="matrix(0.022222222222222223,0,0,0.022222222222222223,72.17777777777778,0)" xlink:href="#aG"/><use transform="matrix(0.022222222222222223,0,0,0.022222222222222223,86.4,0)" xlink:href="#ai"/><use transform="matrix(0.022222222222222223,0,0,0.022222222222222223,101.42222222222223,0)" xlink:href="#aq"/><use transform="matrix(0.022222222222222223,0,0,0.022222222222222223,115.20000000000003,0)" xlink:href="#aL"/><use transform="matrix(0.022222222222222223,0,0,0.022222222222222223,125.28888888888892,0)" xlink:href="#at"/><use transform="matrix(0.022222222222222223,0,0,0.022222222222222223,138.7777777777778,0)" xlink:href="#aD"/><use transform="matrix(0.022222222222222223,0,0,0.022222222222222223,146.86666666666667,0)" xlink:href="#aE"/><use transform="matrix(0.022222222222222223,0,0,0.022222222222222223,157.51111111111112,0)" xlink:href="#bL"/></g><g id="L"><use transform="matrix(0.022222222222222223,0,0,0.022222222222222223,0,0)" xlink:href="#ak"/><use transform="matrix(0.022222222222222223,0,0,0.022222222222222223,14.222222222222223,0)" xlink:href="#aG"/><use transform="matrix(0.022222222222222223,0,0,0.022222222222222223,28.444444444444446,0)" xlink:href="#ai"/><use transform="matrix(0.022222222222222223,0,0,0.022222222222222223,43.46666666666667,0)" xlink:href="#aq"/><use transform="matrix(0.022222222222222223,0,0,0.022222222222222223,57.24444444444445,0)" xlink:href="#bL"/></g><g id="M"><use transform="matrix(0.022222222222222223,0,0,0.022222222222222223,0,0)" xlink:href="#ao"/><use transform="matrix(0.022222222222222223,0,0,0.022222222222222223,22.88888888888889,0)" xlink:href="#aq"/><use transform="matrix(0.022222222222222223,0,0,0.022222222222222223,36.66666666666667,0)" xlink:href="#ao"/><use transform="matrix(0.022222222222222223,0,0,0.022222222222222223,59.55555555555556,0)" xlink:href="#aG"/><use transform="matrix(0.022222222222222223,0,0,0.022222222222222223,73.77777777777779,0)" xlink:href="#aj"/><use transform="matrix(0.022222222222222223,0,0,0.022222222222222223,79.24444444444445,0)" xlink:href="#aO"/><use transform="matrix(0.022222222222222223,0,0,0.022222222222222223,89.35555555555557,0)" xlink:href="#ah"/><use transform="matrix(0.022222222222222223,0,0,0.022222222222222223,104.37777777777781,0)" xlink:href="#aD"/><use transform="matrix(0.022222222222222223,0,0,0.022222222222222223,112.4666666666667,0)" xlink:href="#aj"/><use transform="matrix(0.022222222222222223,0,0,0.022222222222222223,117.93333333333335,0)" xlink:href="#aG"/><use transform="matrix(0.022222222222222223,0,0,0.022222222222222223,132.15555555555557,0)" xlink:href="#ak"/><use transform="matrix(0.022222222222222223,0,0,0.022222222222222223,146.3777777777778,0)" xlink:href="#aM"/></g><g id="N"><use transform="matrix(0.022222222222222223,0,0,0.022222222222222223,0,0)" xlink:href="#ai"/><use transform="matrix(0.022222222222222223,0,0,0.022222222222222223,15.022222222222222,0)" xlink:href="#ar"/><use transform="matrix(0.022222222222222223,0,0,0.022222222222222223,23.311111111111114,0)" xlink:href="#ah"/><use transform="matrix(0.022222222222222223,0,0,0.022222222222222223,38.33333333333333,0)" xlink:href="#aJ"/><use transform="matrix(0.022222222222222223,0,0,0.022222222222222223,56.55555555555555,0)" xlink:href="#bK"/><use transform="matrix(0.022222222222222223,0,0,0.022222222222222223,72.17777777777778,0)" xlink:href="#aG"/><use transform="matrix(0.022222222222222223,0,0,0.022222222222222223,86.4,0)" xlink:href="#ai"/><use transform="matrix(0.022222222222222223,0,0,0.022222222222222223,101.42222222222223,0)" xlink:href="#aq"/><use transform="matrix(0.022222222222222223,0,0,0.022222222222222223,115.20000000000003,0)" xlink:href="#aB"/><use transform="matrix(0.022222222222222223,0,0,0.022222222222222223,124.80000000000001,0)" xlink:href="#aj"/><use transform="matrix(0.022222222222222223,0,0,0.022222222222222223,130.26666666666668,0)" xlink:href="#ak"/><use transform="matrix(0.022222222222222223,0,0,0.022222222222222223,144.4888888888889,0)" xlink:href="#aq"/><use transform="matrix(0.022222222222222223,0,0,0.022222222222222223,158.26666666666668,0)" xlink:href="#av"/><use transform="matrix(0.022222222222222223,0,0,0.022222222222222223,169.86666666666667,0)" xlink:href="#aL"/><use transform="matrix(0.022222222222222223,0,0,0.022222222222222223,179.95555555555558,0)" xlink:href="#at"/><use transform="matrix(0.022222222222222223,0,0,0.022222222222222223,193.44444444444446,0)" xlink:href="#aD"/><use transform="matrix(0.022222222222222223,0,0,0.022222222222222223,201.53333333333333,0)" xlink:href="#aE"/><use transform="matrix(0.022222222222222223,0,0,0.022222222222222223,212.17777777777778,0)" xlink:href="#bL"/></g><g id="O"><use transform="matrix(0.022222222222222223,0,0,0.022222222222222223,0,0)" xlink:href="#ai"/><use transform="matrix(0.022222222222222223,0,0,0.022222222222222223,15.022222222222222,0)" xlink:href="#ar"/><use transform="matrix(0.022222222222222223,0,0,0.022222222222222223,23.311111111111114,0)" xlink:href="#ah"/><use transform="matrix(0.022222222222222223,0,0,0.022222222222222223,38.33333333333333,0)" xlink:href="#aJ"/><use transform="matrix(0.022222222222222223,0,0,0.022222222222222223,56.55555555555555,0)" xlink:href="#bK"/><use transform="matrix(0.022222222222222223,0,0,0.022222222222222223,72.17777777777778,0)" xlink:href="#aG"/><use transform="matrix(0.022222222222222223,0,0,0.022222222222222223,86.4,0)" xlink:href="#ai"/><use transform="matrix(0.022222222222222223,0,0,0.022222222222222223,101.42222222222223,0)" xlink:href="#aq"/><use transform="matrix(0.022222222222222223,0,0,0.022222222222222223,115.20000000000003,0)" xlink:href="#aC"/><use transform="matrix(0.022222222222222223,0,0,0.022222222222222223,132.35555555555558,0)" xlink:href="#aj"/><use transform="matrix(0.022222222222222223,0,0,0.022222222222222223,137.82222222222225,0)" xlink:href="#ar"/><use transform="matrix(0.022222222222222223,0,0,0.022222222222222223,146.11111111111114,0)" xlink:href="#at"/><use transform="matrix(0.022222222222222223,0,0,0.022222222222222223,159.60000000000002,0)" xlink:href="#ax"/><use transform="matrix(0.022222222222222223,0,0,0.022222222222222223,165.0666666666667,0)" xlink:href="#aq"/><use transform="matrix(0.022222222222222223,0,0,0.022222222222222223,178.84444444444446,0)" xlink:href="#aL"/><use transform="matrix(0.022222222222222223,0,0,0.022222222222222223,188.93333333333334,0)" xlink:href="#at"/><use transform="matrix(0.022222222222222223,0,0,0.022222222222222223,202.42222222222222,0)" xlink:href="#aD"/><use transform="matrix(0.022222222222222223,0,0,0.022222222222222223,210.51111111111112,0)" xlink:href="#aE"/><use transform="matrix(0.022222222222222223,0,0,0.022222222222222223,221.15555555555557,0)" xlink:href="#bL"/></g><g id="P"><use transform="matrix(0.022222222222222223,0,0,0.022222222222222223,0,0)" xlink:href="#ak"/><use transform="matrix(0.022222222222222223,0,0,0.022222222222222223,14.222222222222223,0)" xlink:href="#aG"/><use transform="matrix(0.022222222222222223,0,0,0.022222222222222223,28.444444444444446,0)" xlink:href="#ai"/><use transform="matrix(0.022222222222222223,0,0,0.022222222222222223,43.46666666666667,0)" xlink:href="#aq"/><use transform="matrix(0.022222222222222223,0,0,0.022222222222222223,57.24444444444445,0)" xlink:href="#aM"/></g><g id="Q"><use transform="matrix(0.022222222222222223,0,0,0.022222222222222223,0,0)" xlink:href="#ai"/><use transform="matrix(0.022222222222222223,0,0,0.022222222222222223,15.022222222222222,0)" xlink:href="#ar"/><use transform="matrix(0.022222222222222223,0,0,0.022222222222222223,23.311111111111114,0)" xlink:href="#ah"/><use transform="matrix(0.022222222222222223,0,0,0.022222222222222223,38.33333333333333,0)" xlink:href="#aJ"/><use transform="matrix(0.022222222222222223,0,0,0.022222222222222223,56.55555555555555,0)" xlink:href="#bK"/><use transform="matrix(0.022222222222222223,0,0,0.022222222222222223,72.17777777777778,0)" xlink:href="#aG"/><use transform="matrix(0.022222222222222223,0,0,0.022222222222222223,86.4,0)" xlink:href="#ai"/><use transform="matrix(0.022222222222222223,0,0,0.022222222222222223,101.42222222222223,0)" xlink:href="#aq"/><use transform="matrix(0.022222222222222223,0,0,0.022222222222222223,115.20000000000003,0)" xlink:href="#aC"/><use transform="matrix(0.022222222222222223,0,0,0.022222222222222223,132.35555555555558,0)" xlink:href="#aG"/><use transform="matrix(0.022222222222222223,0,0,0.022222222222222223,146.5777777777778,0)" xlink:href="#ak"/><use transform="matrix(0.022222222222222223,0,0,0.022222222222222223,160.80000000000004,0)" xlink:href="#aD"/><use transform="matrix(0.022222222222222223,0,0,0.022222222222222223,168.8888888888889,0)" xlink:href="#aq"/><use transform="matrix(0.022222222222222223,0,0,0.022222222222222223,182.66666666666669,0)" xlink:href="#ak"/><use transform="matrix(0.022222222222222223,0,0,0.022222222222222223,196.88888888888889,0)" xlink:href="#aD"/><use transform="matrix(0.022222222222222223,0,0,0.022222222222222223,204.97777777777782,0)" xlink:href="#aL"/><use transform="matrix(0.022222222222222223,0,0,0.022222222222222223,215.06666666666672,0)" xlink:href="#at"/><use transform="matrix(0.022222222222222223,0,0,0.022222222222222223,228.5555555555556,0)" xlink:href="#aD"/><use transform="matrix(0.022222222222222223,0,0,0.022222222222222223,236.6444444444445,0)" xlink:href="#aE"/><use transform="matrix(0.022222222222222223,0,0,0.022222222222222223,247.28888888888895,0)" xlink:href="#bL"/></g><g id="R"><use transform="matrix(0.022222222222222223,0,0,0.022222222222222223,0,0)" xlink:href="#al"/><use transform="matrix(0.022222222222222223,0,0,0.022222222222222223,15.022222222222222,0)" xlink:href="#aq"/><use transform="matrix(0.022222222222222223,0,0,0.022222222222222223,28.8,0)" xlink:href="#aD"/><use transform="matrix(0.022222222222222223,0,0,0.022222222222222223,36.888888888888886,0)" xlink:href="#bK"/><use transform="matrix(0.022222222222222223,0,0,0.022222222222222223,52.511111111111106,0)" xlink:href="#aG"/><use transform="matrix(0.022222222222222223,0,0,0.022222222222222223,66.73333333333333,0)" xlink:href="#ai"/><use transform="matrix(0.022222222222222223,0,0,0.022222222222222223,81.75555555555556,0)" xlink:href="#aq"/><use transform="matrix(0.022222222222222223,0,0,0.022222222222222223,95.53333333333333,0)" xlink:href="#aC"/><use transform="matrix(0.022222222222222223,0,0,0.022222222222222223,112.68888888888887,0)" xlink:href="#bA"/><use transform="matrix(0.022222222222222223,0,0,0.022222222222222223,125.55555555555554,0)" xlink:href="#aL"/><use transform="matrix(0.022222222222222223,0,0,0.022222222222222223,135.64444444444445,0)" xlink:href="#ak"/><use transform="matrix(0.022222222222222223,0,0,0.022222222222222223,149.86666666666667,0)" xlink:href="#aG"/><use transform="matrix(0.022222222222222223,0,0,0.022222222222222223,164.0888888888889,0)" xlink:href="#ai"/><use transform="matrix(0.022222222222222223,0,0,0.022222222222222223,179.11111111111111,0)" xlink:href="#aq"/><use transform="matrix(0.022222222222222223,0,0,0.022222222222222223,192.88888888888889,0)" xlink:href="#aM"/></g><path fill="#333" d="M337 7C173 7 75-89 75-257v-440h91v441c-2 119 59 182 172 183 112-1 171-65 171-183v-441h91v440C598-89 501 7 337 7" id="bM"/><g id="S"><use transform="matrix(0.03777777777777776,0,0,0.03777777777777776,0,0)" xlink:href="#bM"/><use transform="matrix(0.03777777777777776,0,0,0.03777777777777776,25.499999999999986,0)" xlink:href="#aA"/><use transform="matrix(0.03777777777777776,0,0,0.03777777777777776,58.026666666666635,0)" xlink:href="#aB"/></g><g id="T"><use transform="matrix(0.03777777777777776,0,0,0.03777777777777776,0,0)" xlink:href="#aC"/><use transform="matrix(0.03777777777777776,0,0,0.03777777777777776,29.164444444444428,0)" xlink:href="#ax"/><use transform="matrix(0.03777777777777776,0,0,0.03777777777777776,38.45777777777776,0)" xlink:href="#ah"/><use transform="matrix(0.03777777777777776,0,0,0.03777777777777776,63.99555555555552,0)" xlink:href="#av"/><use transform="matrix(0.03777777777777776,0,0,0.03777777777777776,83.71555555555551,0)" xlink:href="#av"/></g><g id="U"><use transform="matrix(0.03777777777777776,0,0,0.03777777777777776,0,0)" xlink:href="#aI"/><use transform="matrix(0.03777777777777776,0,0,0.03777777777777776,26.708888888888875,0)" xlink:href="#aj"/><use transform="matrix(0.03777777777777776,0,0,0.03777777777777776,36.0022222222222,0)" xlink:href="#ah"/><use transform="matrix(0.03777777777777776,0,0,0.03777777777777776,61.539999999999964,0)" xlink:href="#al"/><use transform="matrix(0.03777777777777776,0,0,0.03777777777777776,87.07777777777773,0)" xlink:href="#ar"/><use transform="matrix(0.03777777777777776,0,0,0.03777777777777776,101.16888888888883,0)" xlink:href="#ah"/><use transform="matrix(0.03777777777777776,0,0,0.03777777777777776,126.70666666666659,0)" xlink:href="#ao"/></g><path d="M27 0v-27h64v-190l-56 39v-29l58-41h29v221h61V0H27" id="bN"/><path d="M33 0v-38h34V0H33" id="bO"/><g id="V"><use transform="matrix(0.05,0,0,0.05,0,0)" xlink:href="#bN"/><use transform="matrix(0.05,0,0,0.05,10,0)" xlink:href="#bO"/><use transform="matrix(0.05,0,0,0.05,15,0)" xlink:href="#bO"/><use transform="matrix(0.05,0,0,0.05,20,0)" xlink:href="#bN"/></g><path d="M101-251c68 0 85 55 85 127S166 4 100 4C33 4 14-52 14-124c0-73 17-127 87-127zm-1 229c47 0 54-49 54-102s-4-102-53-102c-51 0-55 48-55 102 0 53 5 102 54 102" id="bP"/><g id="W"><use transform="matrix(0.05,0,0,0.05,0,0)" xlink:href="#bP"/><use transform="matrix(0.05,0,0,0.05,10,0)" xlink:href="#bO"/><use transform="matrix(0.05,0,0,0.05,15,0)" xlink:href="#bO"/><use transform="matrix(0.05,0,0,0.05,20,0)" xlink:href="#bN"/></g></defs></g></svg>