<svg version="1.2" xmlns="http://www.w3.org/2000/svg" viewBox="0 0 2400 2400" width="2400" height="2400"><style>.a{fill:#212121}.b{fill:#b0aeae}.c{fill:#9ac5db}.d{fill:#eee}.e{fill:#2196f3}.f{fill:#455a64}</style><circle class="a" cx="1200" cy="1200" r="432"/><path class="b" d="m1002.9 529.6l115.9-31 422.4 1576.4-115.9 31z"/><path class="b" d="m1168.3 1079.1l104 60-508 879.9-104-60z"/><path class="b" d="m1207 1264v26c0 0-2.6-11.5-7-13-6-1.9-15 13-15 13v-26z"/><path class="b" d="m1130 1000h52v146h-52c0 0 11.2-22.7 14-46 5.9-49-14-100-14-100z"/><path fill-rule="evenodd" class="c" d="m1200 0c663.6 0 1200 536.4 1200 1200 0 611.8-455.9 1115.4-1047.1 1190.4l138.4-37.1-196-731.8c192.9-43.3 336.7-215.3 336.7-421.5 0-238.9-193.1-432-432-432-44.7 0-87.8 6.8-128.3 19.3l-198.9-742.3c104-29.3 213.7-45 327.2-45z"/><path fill-rule="evenodd" class="d" d="m1200 2400c-663.6 0-1200-536.4-1200-1200 0-659.4 529.7-1193.3 1187.5-1199.9l-188.5 50.5 0.4 1.3-116.1 31.1 188.7 704.2c-176.2 54.5-304 218.5-304 412.8 0 238.9 193.1 432 432 432 75.6 0 146.7-19.4 208.4-53.4l201 750c-127.7 46.2-265.6 71.4-409.4 71.4z"/><path fill-rule="evenodd" class="e" d="m1200 2400c-663.6 0-1200-536.4-1200-1200 0-663.6 536.4-1200 1200-1200 663.6 0 1200 536.4 1200 1200 0 663.6-536.4 1200-1200 1200zm912-1200c0-504.3-407.7-912-912-912-504.3 0-912 407.7-912 912 0 504.3 407.7 912 912 912 504.3 0 912-407.7 912-912z"/><path fill-rule="evenodd" class="a" d="m1200 0c663.6 0 1200 536.4 1200 1200 0 519.8-329.1 961.5-790.6 1128.6l-74.9-279.7c338.4-133.2 577.5-462.7 577.5-848.9 0-504.3-407.7-912-912-912-45.8 0-90.8 3.4-134.7 9.8l-75-279.6c68.1-12 138.2-18.2 209.7-18.2z"/><path fill-rule="evenodd" class="f" d="m1200 2400c-663.6 0-1200-536.4-1200-1200 0-550.2 368.8-1013 873.1-1155.1l74.6 278.3c-381.3 109.3-659.7 460-659.7 876.8 0 504.3 407.7 912 912 912 75.8 0 149.4-9.2 219.8-26.6l74.6 278.3c-94.2 23.7-192.8 36.3-294.4 36.3z"/></svg>